<?xml version="1.0" encoding="UTF-8" standalone="no"?>
<!DOCTYPE svg PUBLIC "-//W3C//DTD SVG 1.1//EN" "http://www.w3.org/Graphics/SVG/1.1/DTD/svg11.dtd">
<svg xmlns="http://www.w3.org/2000/svg" xmlns:xlink="http://www.w3.org/1999/xlink" version="1.1" width="720pt" height="1440pt" viewBox="0 0 720 1440">
<g enable-background="new">
<g>
<clipPath id="cp0">
<path transform="matrix(.73802146,0,0,.73802146,50.399999,53.999998)" d="M -2 -2 L 841 -2 L 841 622 L -2 622 L -2 -2 Z "/>
</clipPath>
<g clip-path="url(#cp0)">
<path transform="matrix(.73802146,0,0,.73802146,50.399999,53.999998)" d="M 0 0 L 39 0 L 39 621 L 0 621 L 0 0 Z " fill="#ffffff"/>
<path transform="matrix(.73802146,0,0,.73802146,50.399999,53.999998)" d="M 39 60 L 840 60 L 840 621 L 39 621 L 39 60 Z " fill="#ffffff"/>
<path transform="matrix(.73802146,0,0,.73802146,50.399999,53.999998)" d="M 38 -1 L 840 -1 L 840 60 L 38 60 L 38 -1 Z " fill="#c9daf8"/>
<path transform="matrix(.73802146,0,0,.73802146,50.399999,53.999998)" stroke-width="1" stroke-linecap="butt" stroke-miterlimit="10" stroke-linejoin="miter" fill="none" stroke="#cccccc" d="M 38.5 -1 L 38.5 621 M 105.5 22 L 105.5 621 M 370.5 22 L 370.5 621 M 486.5 22 L 486.5 621 M 593.5 22 L 593.5 621 M 675.5 22 L 675.5 621 M 740.5 22 L 740.5 621 M 38 -.5 L 840 -.5 M 38 22.5 L 840 22.5 M 38 59.5 L 840 59.5 M 38 80.5 L 840 80.5 M 38 160.5 L 840 160.5 M 38 270.5 L 840 270.5 M 38 350.5 L 840 350.5 M 38 415.5 L 840 415.5 M 38 480.5 L 840 480.5 M 38 501.5 L 840 501.5 M 38 522.5 L 840 522.5 M 38 557.5 L 840 557.5 M 38 578.5 L 840 578.5 M 38 599.5 L 840 599.5 M 38 620.5 L 840 620.5 M 839.5 -1 L 839.5 621 "/>
<text xml:space="preserve" transform="matrix(.73802146 0 0 .73802146 50.399999 53.999998)" font-size="15.599999" font-family="Arial" font-weight="bold"><tspan y="16.695466" x="304 314.3896 323.90559 337.774 351.6424 360.316 366.3844 375.058 379.3792 388.8952 394.09 398.4112 403.606 407.9272 412.24839 421.76438 426.08558 439.95399 448.6276 454.69599 464.21199 468.53318 478.04917 486.72279 491.04399 495.36518 504.0388 512.7124 521.386 530.0596 538.73318 547.40676 556.0803 564.7539">Summary of flip margins, 1976&#x2013;2020</tspan></text>
<path transform="matrix(.73802146,0,0,.73802146,50.399999,53.999998)" stroke-width="1.6376952" stroke-linecap="butt" stroke-miterlimit="10" stroke-linejoin="miter" fill="none" stroke="#000000" d="M 304 18.348395 L 573.54806 18.348395 "/>
<text xml:space="preserve" transform="matrix(.73802146 0 0 .73802146 50.399999 53.999998)" font-size="13" font-family="Arial" font-weight="bold"><tspan y="54.245119" x="58 66.658 73.886 81.114">Year</tspan></text>
<text xml:space="preserve" transform="matrix(.73802146 0 0 .73802146 50.399999 53.999998)" font-size="13" font-family="Arial" font-weight="bold"><tspan y="54.245119" x="197 205.658 209.987 217.215 221.54399 228.77199 235.99999 239.60099 243.92998 251.85999 255.46099 263.391 266.992 270.59303">States to Flip</tspan></text>
<text xml:space="preserve" transform="matrix(.73802146 0 0 .73802146 50.399999 53.999998)" font-size="13" font-family="Arial" font-weight="bold"><tspan y="39.296388" x="401 413.155 416.756 424.686 432.616 436.217 444.147 452.077">Winning </tspan></text>
<text xml:space="preserve" transform="matrix(.73802146 0 0 .73802146 50.399999 53.999998)" font-size="13" font-family="Arial" font-weight="bold"><tspan y="54.245119" x="397 406.386 413.61399 421.54399 429.47398 433.07499 441.00498 448.23298 452.56199">Candidate</tspan></text>
<text xml:space="preserve" transform="matrix(.73802146 0 0 .73802146 50.399999 53.999998)" font-size="13" font-family="Arial" font-weight="bold"><tspan y="39.296388" x="516 523.93 531.86 539.088 542.689 550.619 558.549">Losing </tspan></text>
<text xml:space="preserve" transform="matrix(.73802146 0 0 .73802146 50.399999 53.999998)" font-size="13" font-family="Arial" font-weight="bold"><tspan y="54.245119" x="508 517.386 524.614 532.544 540.474 544.075 552.005 559.23306 563.562">Candidate</tspan></text>
<text xml:space="preserve" transform="matrix(.73802146 0 0 .73802146 50.399999 53.999998)" font-size="13" font-family="Arial" font-weight="bold"><tspan y="39.296388" x="604 610.968 618.898 623.227 630.455 634.056 637.65707 645.58706 649.18807 652.78909 660.71908">Total Flip </tspan></text>
<text xml:space="preserve" transform="matrix(.73802146 0 0 .73802146 50.399999 53.999998)" font-size="13" font-family="Arial" font-weight="bold"><tspan y="54.245119" x="613 623.829 631.057 636.114 644.044 647.645">Margin</tspan></text>
<text xml:space="preserve" transform="matrix(.73802146 0 0 .73802146 50.399999 53.999998)" font-size="13" font-family="Arial" font-weight="bold"><tspan y="39.296388" x="694 701.93 705.531 709.132 717.062">Flip </tspan></text>
<text xml:space="preserve" transform="matrix(.73802146 0 0 .73802146 50.399999 53.999998)" font-size="13" font-family="Arial" font-weight="bold"><tspan y="54.245119" x="679 689.829 697.057 702.114 710.044 713.645 721.575 725.176">Margin %</tspan></text>
<text xml:space="preserve" transform="matrix(.73802146 0 0 .73802146 50.399999 53.999998)" font-size="13" font-family="Arial" font-weight="bold"><tspan y="39.296388" x="748 756.658 764.588 772.518 780.448 784.049 791.27706 796.33407 799.93508 807.6311 815.5611 819.8901 827.1181">Popular Vote </tspan></text>
<text xml:space="preserve" transform="matrix(.73802146 0 0 .73802146 50.399999 53.999998)" font-size="13" font-family="Arial" font-weight="bold"><tspan y="54.245119" x="768 778.829 786.057 791.114 799.044 802.645">Margin</tspan></text>
<text xml:space="preserve" transform="matrix(.73802146 0 0 .73802146 50.399999 53.999998)" font-size="13" font-family="ArialMT"><tspan y="74.19385" x="57 64.228 71.45599 78.68399">1976</tspan></text>
<text xml:space="preserve" transform="matrix(.73802146 0 0 .73802146 50.399999 53.999998)" font-size="13" font-family="ArialMT"><tspan y="74.19385" x="189 199.829 202.715 209.215 215.715 218.601 225.101 231.601 234.487 241.715 248.943 251.829 255.43 259.031 269.13203 276.36003 279.246">Mississippi, Ohio</tspan></text>
<text xml:space="preserve" transform="matrix(.73802146 0 0 .73802146 50.399999 53.999998)" font-size="13" font-family="ArialMT"><tspan y="74.19385" x="389 395.5 398.386 409.215 420.044 426.544 430.14503 439.531 446.759 451.088 454.68904 461.91703">Jimmy Carter</tspan></text>
<text xml:space="preserve" transform="matrix(.73802146 0 0 .73802146 50.399999 53.999998)" font-size="13" font-family="ArialMT"><tspan y="74.19385" x="505 515.101 522.32907 526.658 533.88607 536.77206 544.00009 547.6011 555.53109 562.7591 567.0881">Gerald Ford</tspan></text>
<text xml:space="preserve" transform="matrix(.73802146 0 0 .73802146 50.399999 53.999998)" font-size="13" font-family="ArialMT"><tspan y="74.19385" x="633.2031 639.4692 646.6972 650.2982 657.52627 664.7543">11,909</tspan></text>
<text xml:space="preserve" transform="matrix(.73802146 0 0 .73802146 50.399999 53.999998)" font-size="13" font-family="ArialMT"><tspan y="74.19385" x="700.13919 707.3672 710.9682 718.1962 725.42428">0.01%</tspan></text>
<text xml:space="preserve" transform="matrix(.73802146 0 0 .73802146 50.399999 53.999998)" font-size="13" font-family="ArialMT"><tspan y="74.19385" x="799.13919 806.3672 809.9682 817.1962 824.42428">2.06%</tspan></text>
<text xml:space="preserve" transform="matrix(.73802146 0 0 .73802146 50.399999 53.999998)" font-size="13" font-family="ArialMT"><tspan y="125.19385" x="57 64.228 71.45599 78.68399">1980</tspan></text>
<text xml:space="preserve" transform="matrix(.73802146 0 0 .73802146 50.399999 53.999998)" font-size="13" font-family="ArialMT"><tspan y="95.19385" x="125 133.658 136.544 143.772 151 158.228 169.05699 176.28499 179.88599 182.77199 191.43 195.75899 202.25899 209.48699 216.71498 223.21498 230.44298 236.94298 240.54398 244.14498 253.53098 260.75898 263.64497 270.87297 280.25895 287.48695 291.81596 299.04396 302.64497 306.24598 309.847 312.73298 315.61897 318.50495 325.73295 332.96095 335.84693 342.34693 345.94795">Alabama, Arkansas, Delaware, Illinois, </tspan></text>
<text xml:space="preserve" transform="matrix(.73802146 0 0 .73802146 50.399999 53.999998)" font-size="13" font-family="ArialMT"><tspan y="110.14258" x="108 116.658 123.886 131.114 134.715 141.943 148.443 154.943 160.48099 164.08199 167.68299 174.91098 182.13898 189.36698 192.25298 198.75298 201.63898 208.86698 216.09497 223.32297 226.92397 230.52497 241.35396 248.58196 251.46796 258.69596 265.92396 269.52497 273.12599 283.955 291.18299 297.68299 304.18299 311.41099 317.91099 325.13899 332.36698 338.86698 346.09498 349.69599 353.297 359.797 363.398">Kentucky, Louisiana, Maine, Massachusetts, </tspan></text>
<text xml:space="preserve" transform="matrix(.73802146 0 0 .73802146 50.399999 53.999998)" font-size="13" font-family="ArialMT"><tspan y="125.09131" x="127 137.829 140.715 147.215 154.443 157.329 164.55699 171.78499 179.01299 182.61399 186.21498 197.04398 199.92998 206.42998 212.92998 215.81598 222.31598 228.81598 231.70198 238.92998 246.15798 249.04398 252.64498 256.24598 265.63197 272.85997 277.18898 280.78999 288.01799 291.619 301.00498 308.23298 312.56199 319.78999 322.67597 325.56196 332.78996 340.01795 343.61897">Michigan, Mississippi, North Carolina, </tspan></text>
<text xml:space="preserve" transform="matrix(.73802146 0 0 .73802146 50.399999 53.999998)" font-size="13" font-family="ArialMT"><tspan y="140.04004" x="114 122.658 129.886 137.114 144.342 150.842 157.342 160.228 166.728 173.956 181.18399 184.06999 191.29799 194.89899 198.49999 207.15799 214.38599 221.61399 225.21498 232.44298 236.04398 245.42998 252.65798 256.98698 264.21498 267.10096 269.98695 277.21495 284.44294 288.04396 291.41096 297.91096 305.13896 312.36695 319.59495 326.82295 333.32295 339.82295 347.05094 354.27894 357.87995">Pennsylvania, South Carolina, Tennessee, </tspan></text>
<text xml:space="preserve" transform="matrix(.73802146 0 0 .73802146 50.399999 53.999998)" font-size="13" font-family="ArialMT"><tspan y="154.98877" x="180 187.94301 195.171 199.5 210.329 217.55699 224.78499 228.38599 231.98699 235.58798 247.84699 250.73299 257.23298 263.73298 270.96098 278.18898 284.68898 287.57496">Vermont, Wisconsin</tspan></text>
<text xml:space="preserve" transform="matrix(.73802146 0 0 .73802146 50.399999 53.999998)" font-size="13" font-family="ArialMT"><tspan y="125.19385" x="383 392.386 399.61399 406.84199 414.06999 416.95597 424.18397 427.78498 437.17097 444.39897 451.62696 458.85496 466.08296">Ronald Reagan</tspan></text>
<text xml:space="preserve" transform="matrix(.73802146 0 0 .73802146 50.399999 53.999998)" font-size="13" font-family="ArialMT"><tspan y="125.19385" x="501 507.5 510.386 521.21499 532.04397 538.54397 542.14498 551.53097 558.759 563.08798 566.68899 573.917">Jimmy Carter</tspan></text>
<text xml:space="preserve" transform="matrix(.73802146 0 0 .73802146 50.399999 53.999998)" font-size="13" font-family="ArialMT"><tspan y="125.19385" x="625.0083 632.2363 639.46438 646.6924 650.2934 657.5214 664.74948">646,649</tspan></text>
<text xml:space="preserve" transform="matrix(.73802146 0 0 .73802146 50.399999 53.999998)" font-size="13" font-family="ArialMT"><tspan y="125.19385" x="700.13919 707.3672 710.9682 718.1962 725.42428">0.75%</tspan></text>
<text xml:space="preserve" transform="matrix(.73802146 0 0 .73802146 50.399999 53.999998)" font-size="13" font-family="ArialMT"><tspan y="125.19385" x="799.13919 806.3672 809.9682 817.1962 824.42428">9.73%</tspan></text>
<text xml:space="preserve" transform="matrix(.73802146 0 0 .73802146 50.399999 53.999998)" font-size="13" font-family="ArialMT"><tspan y="220.19385" x="57 64.228 71.45599 78.68399">1984</tspan></text>
<text xml:space="preserve" transform="matrix(.73802146 0 0 .73802146 50.399999 53.999998)" font-size="13" font-family="ArialMT"><tspan y="175.19385" x="107 115.658 118.544 125.772 132.272 138.772 146 149.601 153.202 162.588 169.816 172.702 175.588 179.189 186.41699 190.74599 197.97399 200.85999 208.08798 211.68898 215.28998 224.67598 231.90398 234.78998 242.01798 251.40398 258.632 262.961 270.189 273.79 277.39103 286.777 294.005 303.391 310.619 313.50498 316.39097 319.99198 323.593 327.194 330.08 332.96598 335.85197 343.07997 350.30796 353.19395 359.69395 363.29496">Alaska, California, Delaware, Hawaii, Illinois, </tspan></text>
<text xml:space="preserve" transform="matrix(.73802146 0 0 .73802146 50.399999 53.999998)" font-size="13" font-family="ArialMT"><tspan y="190.14258" x="122 125.601 132.829 142.215 149.443 153.04399 156.64499 167.47399 174.70198 177.58798 184.81598 192.04398 195.64498 199.24597 210.07497 217.30297 221.63196 228.13196 231.01796 238.24596 245.47396 252.70195 256.30296 259.90397 270.73298 277.96098 284.46098 290.96098 298.18898 304.68898 311.91697 319.14497 325.64497 332.87297 336.47398 340.07499 346.57499 350.176">Iowa, Maine, Maryland, Massachusetts, </tspan></text>
<text xml:space="preserve" transform="matrix(.73802146 0 0 .73802146 50.399999 53.999998)" font-size="13" font-family="ArialMT"><tspan y="205.09131" x="109 119.829 122.715007 129.215 135.715 138.601 145.101 151.601 154.487 161.715 168.943 171.829 175.43 179.03099 189.85999 197.08798 204.31598 207.91698 215.14498 222.37297 229.60097 233.20197 236.80297 246.18897 253.41696 259.91697 267.14497 274.37297 281.60096 285.20198 288.80299 298.18898 305.41697 314.80296 318.40397 329.23298 336.46098 342.96098 345.84696 352.34696 359.57496 363.17597">Mississippi, Montana, Nevada, New Mexico, </tspan></text>
<text xml:space="preserve" transform="matrix(.73802146 0 0 .73802146 50.399999 53.999998)" font-size="13" font-family="ArialMT"><tspan y="220.04004" x="139 148.386 155.614 165 168.367 175.84201 183.07 187.399 193.899 197.5 201.101 210.487 217.715 222.04399 225.64499 232.87299 236.47399 245.85999 253.08798 259.58799 266.81599 270.417 277.645 281.246 284.84703 294.94804 299.27705 306.50505 313.73304 320.96104 328.18904 331.79005">New York, North Dakota, Oregon, </tspan></text>
<text xml:space="preserve" transform="matrix(.73802146 0 0 .73802146 50.399999 53.999998)" font-size="13" font-family="ArialMT"><tspan y="234.98877" x="110 118.658 125.886 133.114 140.342 146.842 153.342 156.228 162.728 169.956 177.18399 180.06999 187.29799 190.89899 194.49999 203.88599 211.11399 218.34198 225.56998 232.79798 236.39897 239.99997 246.49997 249.38597 256.61399 263.84199 271.06999 274.671 278.272 286.93 294.158 301.386 304.987 312.215 315.816 325.202 332.43 338.93 346.158 349.759 356.987 360.588">Pennsylvania, Rhode Island, South Dakota, </tspan></text>
<text xml:space="preserve" transform="matrix(.73802146 0 0 .73802146 50.399999 53.999998)" font-size="13" font-family="ArialMT"><tspan y="249.9375" x="120 126.5 133.728 140.956 148.18399 155.41199 161.91199 168.41199 175.63999 182.86798 186.46898 190.06998 198.01299 205.24098 209.56998 220.39897 227.62697 234.85497 238.45597 242.05696 245.65796 257.43598 264.66398 271.16398 278.39198 281.27796 288.50596 295.73396 299.33497 306.56297 313.79096 317.39198 320.99299 333.01799 340.24598 346.74598 350.347">Tennessee, Vermont, Washington, West </tspan></text>
<text xml:space="preserve" transform="matrix(.73802146 0 0 .73802146 50.399999 53.999998)" font-size="13" font-family="ArialMT"><tspan y="264.88624" x="152 160.42401 163.31002 167.639 174.867 177.753 184.981 187.867 195.095 198.696 202.297 214.556 217.442 223.942 230.442 237.67 244.898 251.398 254.284 261.512 265.113 268.71403 280.86903 287.36903 294.59703 305.42604 308.312 315.54">Virginia, Wisconsin, Wyoming</tspan></text>
<text xml:space="preserve" transform="matrix(.73802146 0 0 .73802146 50.399999 53.999998)" font-size="13" font-family="ArialMT"><tspan y="220.19385" x="383 392.386 399.61399 406.84199 414.06999 416.95597 424.18397 427.78498 437.17097 444.39897 451.62696 458.85496 466.08296">Ronald Reagan</tspan></text>
<text xml:space="preserve" transform="matrix(.73802146 0 0 .73802146 50.399999 53.999998)" font-size="13" font-family="ArialMT"><tspan y="220.19385" x="494 505.778 513.00607 515.892 519.49307 526.72109 531.05007 534.65109 545.48007 552.70809 559.9361 567.1641 574.39218 577.27816">Walter Mondale</tspan></text>
<text xml:space="preserve" transform="matrix(.73802146 0 0 .73802146 50.399999 53.999998)" font-size="13" font-family="ArialMT"><tspan y="220.19385" x="614.1665 621.39456 624.99557 632.2236 639.4516 646.6796 650.28067 657.50869 664.7367">2,619,374</tspan></text>
<text xml:space="preserve" transform="matrix(.73802146 0 0 .73802146 50.399999 53.999998)" font-size="13" font-family="ArialMT"><tspan y="220.19385" x="700.13919 707.3672 710.9682 718.1962 725.42428">2.83%</tspan></text>
<text xml:space="preserve" transform="matrix(.73802146 0 0 .73802146 50.399999 53.999998)" font-size="13" font-family="ArialMT"><tspan y="220.19385" x="791.9092 799.1372 806.36526 809.96627 817.1943 824.4223">18.23%</tspan></text>
<text xml:space="preserve" transform="matrix(.73802146 0 0 .73802146 50.399999 53.999998)" font-size="13" font-family="ArialMT"><tspan y="315.19386" x="57 64.228 71.45599 78.68399">1988</tspan></text>
<text xml:space="preserve" transform="matrix(.73802146 0 0 .73802146 50.399999 53.999998)" font-size="13" font-family="ArialMT"><tspan y="285.19386" x="115 123.658 126.544 133.772 140.272 146.772 154 157.601 161.202 170.588 177.816 180.702 183.588 187.189 194.41699 198.74599 205.97399 208.85999 216.08798 219.68898 223.28998 232.67598 239.90398 242.78998 250.01798 254.34697 261.57499 268.80299 276.03099 279.632 283.233 292.619 299.847 307.07499 314.30299 321.53099 328.03099 331.632 334.51799 341.01799 348.24598 351.847 355.448">Alaska, California, Colorado, Connecticut, </tspan></text>
<text xml:space="preserve" transform="matrix(.73802146 0 0 .73802146 50.399999 53.999998)" font-size="13" font-family="ArialMT"><tspan y="300.14259" x="127 136.386 143.614 146.5 153.728 163.114 170.342 174.67099 181.89899 185.49999 189.10099 192.70198 195.58798 198.47399 201.35999 208.58798 215.81598 218.70198 225.20198 228.80298 232.40398 243.23297 250.46097 254.78997 261.28999 264.17597 271.40397 278.63197 285.85997 289.46098 293.06199 303.891 306.77699 313.27699 319.77699 327.00498 334.23298 338.56199 341.44798 345.04899">Delaware, Illinois, Maryland, Missouri, </tspan></text>
<text xml:space="preserve" transform="matrix(.73802146 0 0 .73802146 50.399999 53.999998)" font-size="13" font-family="ArialMT"><tspan y="315.0913" x="128 138.829 146.05699 153.28499 156.88599 164.11399 171.34198 178.56998 182.17098 185.77198 195.15798 202.38597 211.77198 215.37297 226.20197 233.42996 239.92996 242.81597 249.31597 256.54399 260.145 263.746 273.132 280.36 284.689 288.29 295.518 299.11903 308.505 315.733 322.233 329.461 333.062 340.29 343.89103">Montana, New Mexico, North Dakota, </tspan></text>
<text xml:space="preserve" transform="matrix(.73802146 0 0 .73802146 50.399999 53.999998)" font-size="13" font-family="ArialMT"><tspan y="330.04005" x="124 132.658 139.886 147.114 154.342 160.842 167.342 170.228 176.728 183.956 191.18399 194.06999 201.29799 204.89899 208.49999 217.15799 224.38599 231.61399 235.21498 242.44298 246.04398 255.42998 262.658 269.158 276.386 279.987 287.215 290.816 294.41703 302.36003 309.588 313.91703 324.74604 331.97404 339.20204 342.80305 346.40406">Pennsylvania, South Dakota, Vermont, </tspan></text>
<text xml:space="preserve" transform="matrix(.73802146 0 0 .73802146 50.399999 53.999998)" font-size="13" font-family="ArialMT"><tspan y="344.98878" x="210 222.155 228.655 235.883 246.71199 249.59799 256.826">Wyoming</tspan></text>
<text xml:space="preserve" transform="matrix(.73802146 0 0 .73802146 50.399999 53.999998)" font-size="13" font-family="ArialMT"><tspan y="307.19386" x="389 399.101 406.329 413.557 417.88603 425.114 432.342 435.94303 445.329 448.93003 460.47404 464.07505">George H.W. </tspan></text>
<text xml:space="preserve" transform="matrix(.73802146 0 0 .73802146 50.399999 53.999998)" font-size="13" font-family="ArialMT"><tspan y="322.14259" x="413 421.658 428.886 435.386">Bush</tspan></text>
<text xml:space="preserve" transform="matrix(.73802146 0 0 .73802146 50.399999 53.999998)" font-size="13" font-family="ArialMT"><tspan y="315.19386" x="492 502.829 505.715 512.21499 519.443 526.671 533.89907 536.78506 540.38607 549.77206 557.00009 563.50009 570.7281 577.2281 580.1141">Michael Dukakis</tspan></text>
<text xml:space="preserve" transform="matrix(.73802146 0 0 .73802146 50.399999 53.999998)" font-size="13" font-family="ArialMT"><tspan y="315.19386" x="625.0083 632.2363 639.46438 646.6924 650.2934 657.5214 664.74948">549,196</tspan></text>
<text xml:space="preserve" transform="matrix(.73802146 0 0 .73802146 50.399999 53.999998)" font-size="13" font-family="ArialMT"><tspan y="315.19386" x="700.13919 707.3672 710.9682 718.1962 725.42428">0.60%</tspan></text>
<text xml:space="preserve" transform="matrix(.73802146 0 0 .73802146 50.399999 53.999998)" font-size="13" font-family="ArialMT"><tspan y="315.19386" x="799.13919 806.3672 809.9682 817.1962 824.42428">7.73%</tspan></text>
<text xml:space="preserve" transform="matrix(.73802146 0 0 .73802146 50.399999 53.999998)" font-size="13" font-family="ArialMT"><tspan y="387.19386" x="57 64.228 71.45599 78.68399">1992</tspan></text>
<text xml:space="preserve" transform="matrix(.73802146 0 0 .73802146 50.399999 53.999998)" font-size="13" font-family="ArialMT"><tspan y="365.19386" x="127 136.386 143.614 146.5 153.728 158.05699 165.28499 172.51299 179.74098 183.34198 186.94298 196.32898 203.55698 206.44298 213.67098 223.05698 230.28498 234.61397 241.84197 245.44297 249.04396 259.14497 266.37297 273.60096 277.92997 285.15797 288.04396 295.27195 298.87297 302.47398 311.85997 319.08796 328.47395 335.70195 338.58793 341.4739 345.07493">Colorado, Delaware, Georgia, Hawaii, </tspan></text>
<text xml:space="preserve" transform="matrix(.73802146 0 0 .73802146 50.399999 53.999998)" font-size="13" font-family="ArialMT"><tspan y="380.14259" x="121 129.658 136.886 144.114 147.715 154.943 161.443 167.943 173.48099 177.08199 180.68299 187.91098 195.13898 202.36698 205.25298 211.75298 214.63898 221.86698 229.09497 236.32297 239.92397 243.52497 254.35396 261.58198 268.80998 272.41099 279.63899 286.86698 294.09498 297.69599 301.297 310.68299 317.91099 324.41099 331.63899 338.86698 346.09498 349.69599">Kentucky, Louisiana, Montana, Nevada, </tspan></text>
<text xml:space="preserve" transform="matrix(.73802146 0 0 .73802146 50.399999 53.999998)" font-size="13" font-family="ArialMT"><tspan y="395.0913" x="133 142.386 149.614 159 162.601 171.987 179.215 190.04399 197.27199 203.77199 210.99999 213.88599 218.21498 225.44298 229.04398 232.64498 242.03098 249.25897 258.64497 262.24598 268.74598 275.97398 280.30299 286.80299 294.03099 299.56898 303.16999 306.771 316.872 324.1 326.986 334.214 337.815">New Hampshire, New Jersey, Ohio, </tspan></text>
<text xml:space="preserve" transform="matrix(.73802146 0 0 .73802146 50.399999 53.999998)" font-size="13" font-family="ArialMT"><tspan y="410.04005" x="206 212.5 219.728 226.956 234.18399 241.41199 247.91199 254.41199 261.63999">Tennessee</tspan></text>
<text xml:space="preserve" transform="matrix(.73802146 0 0 .73802146 50.399999 53.999998)" font-size="13" font-family="ArialMT"><tspan y="387.19386" x="397 405.658 408.54399 411.42997 414.31596 417.91697 427.30296 430.18894 433.07493 440.30293 443.90394 451.13194">Bill Clinton</tspan></text>
<text xml:space="preserve" transform="matrix(.73802146 0 0 .73802146 50.399999 53.999998)" font-size="13" font-family="ArialMT"><tspan y="380.19386" x="500 510.101 517.32907 524.55709 528.88607 536.1141 543.3421 546.9431 556.3291 559.9301 571.47409 575.0751">George H.W. </tspan></text>
<text xml:space="preserve" transform="matrix(.73802146 0 0 .73802146 50.399999 53.999998)" font-size="13" font-family="ArialMT"><tspan y="395.14259" x="525 533.658 540.88607 547.38607">Bush</tspan></text>
<text xml:space="preserve" transform="matrix(.73802146 0 0 .73802146 50.399999 53.999998)" font-size="13" font-family="ArialMT"><tspan y="387.19386" x="625.0083 632.2363 639.46438 646.6924 650.2934 657.5214 664.74948">284,837</tspan></text>
<text xml:space="preserve" transform="matrix(.73802146 0 0 .73802146 50.399999 53.999998)" font-size="13" font-family="ArialMT"><tspan y="387.19386" x="700.13919 707.3672 710.9682 718.1962 725.42428">0.27%</tspan></text>
<text xml:space="preserve" transform="matrix(.73802146 0 0 .73802146 50.399999 53.999998)" font-size="13" font-family="ArialMT"><tspan y="387.19386" x="799.13919 806.3672 809.9682 817.1962 824.42428">5.59%</tspan></text>
<text xml:space="preserve" transform="matrix(.73802146 0 0 .73802146 50.399999 53.999998)" font-size="13" font-family="ArialMT"><tspan y="452.19386" x="57 64.228 71.45599 78.68399">1996</tspan></text>
<text xml:space="preserve" transform="matrix(.73802146 0 0 .73802146 50.399999 53.999998)" font-size="13" font-family="ArialMT"><tspan y="430.19386" x="127 135.658 139.987 142.873 149.373 156.601 163.829 171.05699 174.65799 178.25899 187.64499 194.87299 197.75899 204.98699 214.37299 221.60099 225.92998 233.15798 236.75897 240.35997 248.28998 251.17598 258.404 262.733 265.619 272.847 280.07499 283.676 287.277 295.935 303.163 310.391 313.992 321.22 327.72 334.22 339.758 343.359">Arizona, Delaware, Florida, Kentucky, </tspan></text>
<text xml:space="preserve" transform="matrix(.73802146 0 0 .73802146 50.399999 53.999998)" font-size="13" font-family="ArialMT"><tspan y="445.14259" x="119 129.829 132.715 139.215 145.715 152.943 160.17099 164.49999 167.38599 170.98699 174.58798 183.97399 191.20198 197.70198 204.92998 212.15798 219.38597 222.98697 226.58797 235.97397 243.20197 252.58797 256.18898 265.57496 272.80296 283.63197 290.85997 297.35997 304.58796 307.47395 311.80296 319.03096 322.63197 326.23298 335.61897 342.84696 352.23295">Missouri, Nevada, New Hampshire, New </tspan></text>
<text xml:space="preserve" transform="matrix(.73802146 0 0 .73802146 50.399999 53.999998)" font-size="13" font-family="ArialMT"><tspan y="460.0913" x="119 129.829 137.05699 143.55699 146.443 152.943 160.17099 163.77199 167.37299 177.47399 184.70198 187.58798 194.81598 198.41698 202.01798 212.11898 216.44797 223.67597 230.90396 238.13196 245.35996 248.96096 252.32796 258.82798 266.05598 273.28398 280.51197 287.73997 294.23997 300.73997 307.96797 315.19596 318.79698 322.39799 334.42298 341.65098 348.15098 351.75199">Mexico, Ohio, Oregon, Tennessee, West </tspan></text>
<text xml:space="preserve" transform="matrix(.73802146 0 0 .73802146 50.399999 53.999998)" font-size="13" font-family="ArialMT"><tspan y="475.04005" x="216 224.42401 227.31002 231.639 238.867 241.753 248.981 251.867">Virginia</tspan></text>
<text xml:space="preserve" transform="matrix(.73802146 0 0 .73802146 50.399999 53.999998)" font-size="13" font-family="ArialMT"><tspan y="452.19386" x="397 405.658 408.54399 411.42997 414.31596 417.91697 427.30296 430.18894 433.07493 440.30293 443.90394 451.13194">Bill Clinton</tspan></text>
<text xml:space="preserve" transform="matrix(.73802146 0 0 .73802146 50.399999 53.999998)" font-size="13" font-family="ArialMT"><tspan y="452.19386" x="505 514.386 521.614 528.84207 536.07009 540.39907 544.00009 547.6011 556.98709 564.2151 567.1011">Robert Dole</tspan></text>
<text xml:space="preserve" transform="matrix(.73802146 0 0 .73802146 50.399999 53.999998)" font-size="13" font-family="ArialMT"><tspan y="452.19386" x="625.0083 632.2363 639.46438 646.6924 650.2934 657.5214 664.74948">579,287</tspan></text>
<text xml:space="preserve" transform="matrix(.73802146 0 0 .73802146 50.399999 53.999998)" font-size="13" font-family="ArialMT"><tspan y="452.19386" x="700.13919 707.3672 710.9682 718.1962 725.42428">0.60%</tspan></text>
<text xml:space="preserve" transform="matrix(.73802146 0 0 .73802146 50.399999 53.999998)" font-size="13" font-family="ArialMT"><tspan y="452.19386" x="799.13919 806.3672 809.9682 817.1962 824.42428">8.58%</tspan></text>
<text xml:space="preserve" transform="matrix(.73802146 0 0 .73802146 50.399999 53.999998)" font-size="13" font-family="ArialMT"><tspan y="495.19386" x="57 64.228 71.45599 78.68399">2000</tspan></text>
<text xml:space="preserve" transform="matrix(.73802146 0 0 .73802146 50.399999 53.999998)" font-size="13" font-family="ArialMT"><tspan y="495.19386" x="218 225.93 228.816 236.04399 240.37299 243.25899 250.48699">Florida</tspan></text>
<text xml:space="preserve" transform="matrix(.73802146 0 0 .73802146 50.399999 53.999998)" font-size="13" font-family="ArialMT"><tspan y="495.19386" x="380 390.101 397.329 404.557 408.88603 416.114 423.342 426.94303 438.48704 442.08805 445.68907 454.34706 461.57505 468.07505">George W. Bush</tspan></text>
<text xml:space="preserve" transform="matrix(.73802146 0 0 .73802146 50.399999 53.999998)" font-size="13" font-family="ArialMT"><tspan y="495.19386" x="517 525.658 528.544 532.145 542.24606 549.47409 553.80307">Al Gore</tspan></text>
<text xml:space="preserve" transform="matrix(.73802146 0 0 .73802146 50.399999 53.999998)" font-size="13" font-family="ArialMT"><tspan y="495.19386" x="650.31008 657.5381 664.7661">269</tspan></text>
<text xml:space="preserve" transform="matrix(.73802146 0 0 .73802146 50.399999 53.999998)" font-size="13" font-family="ArialMT"><tspan y="495.19386" x="700.13919 707.3672 710.9682 718.1962 725.42428">0.00%</tspan></text>
<text xml:space="preserve" transform="matrix(.73802146 0 0 .73802146 50.399999 53.999998)" font-size="13" font-family="ArialMT"><tspan y="495.19386" x="794.81008 799.13906 806.36709 809.9681 817.1961 824.42416">-0.51%</tspan></text>
<text xml:space="preserve" transform="matrix(.73802146 0 0 .73802146 50.399999 53.999998)" font-size="13" font-family="ArialMT"><tspan y="516.19387" x="57 64.228 71.45599 78.68399">2004</tspan></text>
<text xml:space="preserve" transform="matrix(.73802146 0 0 .73802146 50.399999 53.999998)" font-size="13" font-family="ArialMT"><tspan y="516.19387" x="155 164.386 171.614 174.5 181.728 186.05699 193.28499 200.51299 207.74098 211.34198 214.94298 218.54398 225.77198 235.15798 242.38597 245.98697 249.58797 258.97398 266.20198 275.58796 279.18898 290.01799 297.24598 303.74598 306.63197 313.13197">Colorado, Iowa, New Mexico</tspan></text>
<text xml:space="preserve" transform="matrix(.73802146 0 0 .73802146 50.399999 53.999998)" font-size="13" font-family="ArialMT"><tspan y="516.19387" x="380 390.101 397.329 404.557 408.88603 416.114 423.342 426.94303 438.48704 442.08805 445.68907 454.34706 461.57505 468.07505">George W. Bush</tspan></text>
<text xml:space="preserve" transform="matrix(.73802146 0 0 .73802146 50.399999 53.999998)" font-size="13" font-family="ArialMT"><tspan y="516.19387" x="508 514.5 521.728 528.95608 536.1841 539.7851 548.4431 555.67117 560.0001 564.3291">John Kerry</tspan></text>
<text xml:space="preserve" transform="matrix(.73802146 0 0 .73802146 50.399999 53.999998)" font-size="13" font-family="ArialMT"><tspan y="516.19387" x="632.2383 639.4663 646.69436 650.29537 657.5234 664.7514">57,787</tspan></text>
<text xml:space="preserve" transform="matrix(.73802146 0 0 .73802146 50.399999 53.999998)" font-size="13" font-family="ArialMT"><tspan y="516.19387" x="700.13919 707.3672 710.9682 718.1962 725.42428">0.05%</tspan></text>
<text xml:space="preserve" transform="matrix(.73802146 0 0 .73802146 50.399999 53.999998)" font-size="13" font-family="ArialMT"><tspan y="516.19387" x="799.13919 806.3672 809.9682 817.1962 824.42428">2.45%</tspan></text>
<text xml:space="preserve" transform="matrix(.73802146 0 0 .73802146 50.399999 53.999998)" font-size="13" font-family="ArialMT"><tspan y="544.19387" x="57 64.228 71.45599 78.68399">2008</tspan></text>
<text xml:space="preserve" transform="matrix(.73802146 0 0 .73802146 50.399999 53.999998)" font-size="13" font-family="ArialMT"><tspan y="537.19387" x="109 118.386 125.614 128.5 135.728 140.05699 147.28499 154.51299 161.74098 165.34198 168.94298 176.87299 179.75899 186.98699 191.31598 194.20198 201.42998 208.65798 212.25897 215.85997 219.46097 226.68897 233.91696 236.80297 244.03096 251.25896 258.48698 262.08799 265.689 275.07499 282.30299 291.68898 295.28999 304.67597 311.90397 322.73298 329.96098 336.46098 343.68898 346.57496 350.90397 358.13197 361.73298">Colorado, Florida, Indiana, New Hampshire, </tspan></text>
<text xml:space="preserve" transform="matrix(.73802146 0 0 .73802146 50.399999 53.999998)" font-size="13" font-family="ArialMT"><tspan y="552.1426" x="153 162.386 169.614 173.943 177.54399 184.77199 188.37299 197.75899 204.98699 209.31598 216.54398 219.42998 222.31598 229.54398 236.77198 240.37297 243.97397 254.07497 261.30299 264.18898 271.41697 275.01799 278.619 287.04298 289.92897 294.25798 301.48597 304.37196 311.59996 314.48594">North Carolina, Ohio, Virginia</tspan></text>
<text xml:space="preserve" transform="matrix(.73802146 0 0 .73802146 50.399999 53.999998)" font-size="13" font-family="ArialMT"><tspan y="544.19387" x="376 384.658 391.886 396.215 403.443 409.943 416.443 420.044 429.43 433.031 436.63203 446.73304 453.96104 461.18904 472.01805">Barack H. Obama</tspan></text>
<text xml:space="preserve" transform="matrix(.73802146 0 0 .73802146 50.399999 53.999998)" font-size="13" font-family="ArialMT"><tspan y="544.19387" x="502 508.5 515.728 522.95608 530.1841 533.7851 544.6141 551.1141 560.50009 567.7281 570.6141">John McCain</tspan></text>
<text xml:space="preserve" transform="matrix(.73802146 0 0 .73802146 50.399999 53.999998)" font-size="13" font-family="ArialMT"><tspan y="544.19387" x="625.0083 632.2363 639.46438 646.6924 650.2934 657.5214 664.74948">529,529</tspan></text>
<text xml:space="preserve" transform="matrix(.73802146 0 0 .73802146 50.399999 53.999998)" font-size="13" font-family="ArialMT"><tspan y="544.19387" x="700.13919 707.3672 710.9682 718.1962 725.42428">0.40%</tspan></text>
<text xml:space="preserve" transform="matrix(.73802146 0 0 .73802146 50.399999 53.999998)" font-size="13" font-family="ArialMT"><tspan y="544.19387" x="799.13919 806.3672 809.9682 817.1962 824.42428">7.28%</tspan></text>
<text xml:space="preserve" transform="matrix(.73802146 0 0 .73802146 50.399999 53.999998)" font-size="13" font-family="ArialMT"><tspan y="572.19387" x="57 64.228 71.45599 78.68399">2012</tspan></text>
<text xml:space="preserve" transform="matrix(.73802146 0 0 .73802146 50.399999 53.999998)" font-size="13" font-family="ArialMT"><tspan y="572.19387" x="149 156.93 159.816 167.04399 171.37299 174.25899 181.48699 188.71498 192.31598 195.91698 205.30298 212.53098 219.03098 226.25897 233.48697 240.71497 244.31597 247.91696 258.01799 265.24598 268.13197 275.35997 278.96098 282.56199 290.98597 293.87196 298.20097 305.42897 308.31495 315.54295 318.42893">Florida, Nevada, Ohio, Virginia</tspan></text>
<text xml:space="preserve" transform="matrix(.73802146 0 0 .73802146 50.399999 53.999998)" font-size="13" font-family="ArialMT"><tspan y="572.19387" x="376 384.658 391.886 396.215 403.443 409.943 416.443 420.044 429.43 433.031 436.63203 446.73304 453.96104 461.18904 472.01805">Barack H. Obama</tspan></text>
<text xml:space="preserve" transform="matrix(.73802146 0 0 .73802146 50.399999 53.999998)" font-size="13" font-family="ArialMT"><tspan y="572.19387" x="503 513.829 516.71499 520.316 523.917 527.518 536.904 544.132 554.961 562.189 569.41708">Mitt Romney</tspan></text>
<text xml:space="preserve" transform="matrix(.73802146 0 0 .73802146 50.399999 53.999998)" font-size="13" font-family="ArialMT"><tspan y="572.19387" x="625.0083 632.2363 639.46438 646.6924 650.2934 657.5214 664.74948">228,817</tspan></text>
<text xml:space="preserve" transform="matrix(.73802146 0 0 .73802146 50.399999 53.999998)" font-size="13" font-family="ArialMT"><tspan y="572.19387" x="700.13919 707.3672 710.9682 718.1962 725.42428">0.18%</tspan></text>
<text xml:space="preserve" transform="matrix(.73802146 0 0 .73802146 50.399999 53.999998)" font-size="13" font-family="ArialMT"><tspan y="572.19387" x="799.13919 806.3672 809.9682 817.1962 824.42428">3.85%</tspan></text>
<text xml:space="preserve" transform="matrix(.73802146 0 0 .73802146 50.399999 53.999998)" font-size="13" font-family="ArialMT"><tspan y="593.19387" x="57 64.228 71.45599 78.68399">2016</tspan></text>
<text xml:space="preserve" transform="matrix(.73802146 0 0 .73802146 50.399999 53.999998)" font-size="13" font-family="ArialMT"><tspan y="593.19387" x="136 146.829 149.715 156.215 163.443 166.329 173.55699 180.78499 188.01299 191.61399 195.21498 203.87299 211.10099 218.32898 225.55698 232.05698 238.55698 241.44298 247.94298 255.17098 262.399 265.28498 272.51298 276.11399 279.715 291.974 294.86 301.36 307.86 315.08799 322.31599 328.81599 331.70198">Michigan, Pennsylvania, Wisconsin</tspan></text>
<text xml:space="preserve" transform="matrix(.73802146 0 0 .73802146 50.399999 53.999998)" font-size="13" font-family="ArialMT"><tspan y="593.19387" x="380 389.386 396.61399 403.84199 411.06999 413.95597 421.18397 424.78498 431.28498 434.886 438.253 445.702 450.031 457.259 468.088">Donald J. Trump</tspan></text>
<text xml:space="preserve" transform="matrix(.73802146 0 0 .73802146 50.399999 53.999998)" font-size="13" font-family="ArialMT"><tspan y="593.19387" x="499 508.386 511.27198 514.15798 517.04397 524.272 528.60098 535.10098 538.70199 548.08798 550.97396 553.8599 561.08798 564.68899 571.917">Hillary Clinton</tspan></text>
<text xml:space="preserve" transform="matrix(.73802146 0 0 .73802146 50.399999 53.999998)" font-size="13" font-family="ArialMT"><tspan y="593.19387" x="632.2383 639.4663 646.69436 650.29537 657.5234 664.7514">38,875</tspan></text>
<text xml:space="preserve" transform="matrix(.73802146 0 0 .73802146 50.399999 53.999998)" font-size="13" font-family="ArialMT"><tspan y="593.19387" x="700.13919 707.3672 710.9682 718.1962 725.42428">0.03%</tspan></text>
<text xml:space="preserve" transform="matrix(.73802146 0 0 .73802146 50.399999 53.999998)" font-size="13" font-family="ArialMT"><tspan y="593.19387" x="795.7749 800.1039 807.3319 810.9329 817.199 824.427">-2.11%</tspan></text>
<text xml:space="preserve" transform="matrix(.73802146 0 0 .73802146 50.399999 53.999998)" font-size="13" font-family="ArialMT"><tspan y="614.19387" x="57 64.228 71.45599 78.68399">2020</tspan></text>
<text xml:space="preserve" transform="matrix(.73802146 0 0 .73802146 50.399999 53.999998)" font-size="13" font-family="ArialMT"><tspan y="614.19387" x="129 137.658 141.987 144.873 151.373 158.601 165.829 173.05699 176.65799 180.25899 190.35999 197.58798 204.81598 209.14498 216.37297 219.25897 226.48697 230.08797 233.68897 243.07497 250.30297 256.80299 264.03099 271.25898 278.48698 282.08799 285.689 297.948 300.83399 307.33399 313.83399 321.06199 328.28999 334.78999 337.67597">Arizona, Georgia, Nevada, Wisconsin</tspan></text>
<text xml:space="preserve" transform="matrix(.73802146 0 0 .73802146 50.399999 53.999998)" font-size="13" font-family="ArialMT"><tspan y="614.19387" x="380 386.5 393.728 400.228 407.456 414.684 421.912 425.513 434.899 438.5 442.101 450.759 453.645 460.873 468.10099">Joseph R. Biden</tspan></text>
<text xml:space="preserve" transform="matrix(.73802146 0 0 .73802146 50.399999 53.999998)" font-size="13" font-family="ArialMT"><tspan y="614.19387" x="492 501.386 508.61399 515.842 523.07 525.956 533.184 536.78506 543.28506 546.88607 550.25308 557.702 562.031 569.25906 580.088">Donald J. Trump</tspan></text>
<text xml:space="preserve" transform="matrix(.73802146 0 0 .73802146 50.399999 53.999998)" font-size="13" font-family="ArialMT"><tspan y="614.19387" x="632.2383 639.4663 646.69436 650.29537 657.5234 664.7514">38,260</tspan></text>
<text xml:space="preserve" transform="matrix(.73802146 0 0 .73802146 50.399999 53.999998)" font-size="13" font-family="ArialMT"><tspan y="614.19387" x="700.13919 707.3672 710.9682 718.1962 725.42428">0.02%</tspan></text>
<text xml:space="preserve" transform="matrix(.73802146 0 0 .73802146 50.399999 53.999998)" font-size="13" font-family="ArialMT"><tspan y="614.19387" x="799.13919 806.3672 809.9682 817.1962 824.42428">4.45%</tspan></text>
</g>
</g>
</g>
</svg>
